<svg width="106" height="40" viewBox="0 0 106 40" fill="none" xmlns="http://www.w3.org/2000/svg">
<g clip-path="url(#clip0_853_18535)">
<path d="M102.936 37.2144L103.72 38.7156C103.085 39.2365 102.296 39.5243 101.479 39.5321C99.7375 39.5321 98.5198 38.2521 98.5198 36.4215V29.7109H96.8242V27.8568H98.5198V24.7227H100.63V27.8568H103.284V29.7109H100.63V36.2662C100.63 37.0615 101.152 37.6332 101.79 37.6332C102.21 37.6442 102.619 37.4948 102.936 37.2144Z" fill="#EB6319"/>
<path d="M100.6 12.9007L99.2085 15.0042C98.6704 15.816 98.065 15.6419 97.6058 15.7431L99.2503 13.3572C98.6287 12.7242 97.6916 12.4372 96.729 12.1807L96.8241 11.5713C98.2343 11.7031 99.5263 12.0819 100.6 12.9007Z" fill="#126F77"/>
<path d="M105.17 12.8613C102.692 21.8025 95.9729 21.8543 87.6043 22.7437C90.485 23.3625 93.9875 23.4943 97.578 23.1696C95.4245 24.5429 93.0044 25.4291 90.4827 25.7677C87.961 26.1063 85.3969 25.8895 82.9653 25.1319C84.6823 25.0143 86.3787 24.6848 88.0171 24.1507C82.4063 24.2496 79.1405 24.4849 75.2043 20.1719C80.3837 21.1131 85.8554 21.2966 89.9794 20.666C83.6055 20.0143 73.191 20.179 71.1638 12.8613C76.086 16.5536 82.0462 18.5463 88.1679 18.5463C94.2896 18.5463 100.25 16.5536 105.172 12.8613H105.17Z" fill="#126F77"/>
<path d="M96.6225 8.96232L95.4628 15.7459C95.3329 16.4964 95.043 16.6117 94.3935 16.8541L95.4999 9.97644C95.1056 9.72232 93.8531 9.90821 93.1108 10.0164C94.0062 9.32468 94.9873 8.91762 96.6225 8.96232Z" fill="#126F77"/>
<path d="M95.7944 28.4448L94.8387 30.0566C93.7509 29.3719 92.619 28.9978 91.6402 28.9978C90.5315 28.9978 89.6593 29.4825 89.6593 30.3436C89.6593 31.2048 90.3552 31.4919 92.2502 32.0872C94.1058 32.6401 96.0773 33.2636 96.0773 35.5295C96.0773 37.6942 94.2728 39.0589 91.8141 39.0589C90.0703 39.0475 88.3794 38.4501 87.0059 37.3601L88.0287 35.7931C89.2256 36.6754 90.5083 37.1836 91.835 37.1836C93.0968 37.1836 93.9689 36.5883 93.9689 35.7036C93.9689 34.6448 92.8092 34.3131 91.4175 33.9178C88.829 33.1883 87.544 32.4378 87.544 30.5836C87.5231 28.4872 89.2418 27.1201 91.6355 27.1201C93.1188 27.1452 94.5632 27.6053 95.7944 28.4448Z" fill="#EB6319"/>
<path d="M94.5278 10.8066L94.4142 11.6631C93.1361 11.7267 91.8681 11.9263 90.6311 12.2584C91.7559 11.3869 93.1143 10.8808 94.5278 10.8066Z" fill="#126F77"/>
<path d="M94.1963 13.0049L94.0826 13.8614C92.8044 13.9238 91.5363 14.1234 90.2996 14.4567C91.4239 13.5842 92.7825 13.078 94.1963 13.0049Z" fill="#126F77"/>
<path d="M93.8669 15.2021L93.7533 16.0586C92.4751 16.1208 91.2069 16.3203 89.9702 16.6539C91.0943 15.7811 92.4531 15.2748 93.8669 15.2021Z" fill="#126F77"/>
<path d="M88.6155 4.40527C89.4946 8.35821 92.99 8.47821 94.3655 8.15351C91.9045 9.43351 89.9353 11.4876 88.6155 14.5488V4.40527Z" fill="#EC631A"/>
<path d="M91.8466 7.15731C92.5602 7.15731 93.1386 6.57054 93.1386 5.84672C93.1386 5.1229 92.5602 4.53613 91.8466 4.53613C91.1331 4.53613 90.5547 5.1229 90.5547 5.84672C90.5547 6.57054 91.1331 7.15731 91.8466 7.15731Z" fill="#126F77"/>
<path d="M89.9353 1.47287L88.8382 2.27758L89.2603 3.58111L88.1655 2.7717L87.073 3.58111L87.4929 2.27758L86.3958 1.47287L87.7503 1.47523L88.1655 0.166992L88.5807 1.47523L89.9353 1.47287Z" fill="#126F77"/>
<path d="M87.7156 4.40527V14.5488C86.3958 11.49 84.4265 9.43351 81.9656 8.15351C83.341 8.47115 86.8365 8.35821 87.7156 4.40527Z" fill="#EC631A"/>
<path d="M86.3656 33.8519H77.5099C77.7929 35.7507 79.1637 37.1201 81.1004 37.1201C82.2764 37.1201 83.6519 36.5907 84.3199 35.8825L85.6698 37.2942C84.6678 38.3742 82.7102 39.0589 81.1213 39.0589C77.99 39.0589 75.3342 36.5648 75.3342 33.0566C75.3342 29.6354 77.8369 27.1201 80.9474 27.1201C84.3848 27.1225 86.3656 29.7695 86.3656 33.8519ZM77.5331 32.1083H84.2758C84.0439 30.3436 82.9723 29.0636 81.0285 29.0636C79.2959 29.0636 77.881 30.2542 77.5331 32.1083Z" fill="#EB6319"/>
<path d="M84.4846 7.15731C85.1981 7.15731 85.7765 6.57054 85.7765 5.84672C85.7765 5.1229 85.1981 4.53613 84.4846 4.53613C83.771 4.53613 83.1926 5.1229 83.1926 5.84672C83.1926 6.57054 83.771 7.15731 84.4846 7.15731Z" fill="#126F77"/>
<path d="M82.135 13.3105C83.5487 13.3837 84.9074 13.8898 86.0317 14.7623C84.7949 14.429 83.5269 14.2295 82.2487 14.167L82.135 13.3105Z" fill="#126F77"/>
<path d="M82.135 15.1221C83.5487 15.1952 84.9074 15.7014 86.0317 16.5738C84.7949 16.2406 83.5269 16.041 82.2487 15.9785L82.135 15.1221Z" fill="#126F77"/>
<path d="M81.8032 10.8066C83.2167 10.8808 84.5751 11.3869 85.6999 12.2584C84.463 11.9259 83.195 11.7264 81.9169 11.6631L81.8032 10.8066Z" fill="#126F77"/>
<path d="M80.843 9.97644L81.947 16.8541C81.2976 16.6188 81.0076 16.4964 80.8778 15.7459L79.718 8.96232C81.3532 8.91762 82.3367 9.32468 83.239 10.0164C82.4875 9.90821 81.235 9.72232 80.843 9.97644Z" fill="#126F77"/>
<path d="M79.5093 11.5693L79.6044 12.1787C78.6418 12.4376 77.707 12.7246 77.0831 13.3552L78.7276 15.7411C78.2637 15.6399 77.663 15.814 77.1248 15.0023L75.7332 12.8987C76.8048 12.0823 78.0967 11.7035 79.5093 11.5693Z" fill="#126F77"/>
<path d="M74.3831 23.7109V38.8733H72.1842L63.5906 27.3745V38.8733H61.394V23.7109H63.5906L72.1842 35.2098V23.7109H74.3831Z" fill="#EB6319"/>
<path d="M8.5142 39H2.07812V22.2727H8.44886C10.1695 22.2727 11.656 22.6076 12.9084 23.2773C14.1662 23.9416 15.1354 24.9 15.8161 26.1523C16.5021 27.3993 16.8452 28.8939 16.8452 30.6364C16.8452 32.3788 16.5049 33.8762 15.8242 35.1286C15.1436 36.3755 14.1798 37.3338 12.9329 38.0036C11.686 38.6679 10.2131 39 8.5142 39ZM6.61932 35.1449H8.35085C9.1785 35.1449 9.88364 35.0115 10.4663 34.7447C11.0543 34.4779 11.5008 34.0178 11.8058 33.3643C12.1161 32.7109 12.2713 31.8016 12.2713 30.6364C12.2713 29.4711 12.1134 28.5618 11.7976 27.9084C11.4872 27.255 11.0298 26.7949 10.4254 26.5281C9.82647 26.2612 9.09138 26.1278 8.22017 26.1278H6.61932V35.1449ZM25.023 39.2287C23.6835 39.2287 22.5291 38.9728 21.5599 38.4609C20.5961 37.9437 19.8529 37.2031 19.3302 36.2393C18.8129 35.2701 18.5542 34.1103 18.5542 32.7599C18.5542 31.464 18.8156 30.3314 19.3383 29.3622C19.8611 28.393 20.5989 27.6388 21.5518 27.0998C22.5046 26.5607 23.6291 26.2912 24.925 26.2912C25.8724 26.2912 26.73 26.4382 27.4978 26.7322C28.2655 27.0263 28.9217 27.4537 29.4662 28.0146C30.0107 28.57 30.43 29.2451 30.724 30.0401C31.018 30.8351 31.165 31.7308 31.165 32.7273V33.7727H19.9591V31.2898H27.0159C27.0104 30.9304 26.9179 30.6146 26.7382 30.3423C26.564 30.0646 26.3271 29.8496 26.0276 29.6971C25.7336 29.5392 25.3987 29.4602 25.023 29.4602C24.6582 29.4602 24.3233 29.5392 24.0184 29.6971C23.7135 29.8496 23.4684 30.0619 23.2833 30.3342C23.1036 30.6064 23.0083 30.925 22.9974 31.2898V33.9688C22.9974 34.3717 23.0818 34.7311 23.2506 35.0469C23.4194 35.3627 23.6617 35.6104 23.9775 35.7901C24.2934 35.9698 24.6745 36.0597 25.121 36.0597C25.4314 36.0597 25.7145 36.0161 25.9704 35.929C26.2318 35.8419 26.455 35.7166 26.6402 35.5533C26.8253 35.3845 26.9614 35.183 27.0486 34.9489H31.165C31.0235 35.8201 30.6886 36.5769 30.1604 37.2195C29.6323 37.8565 28.9326 38.352 28.0613 38.706C27.1956 39.0545 26.1828 39.2287 25.023 39.2287ZM39.0162 39.2287C37.6767 39.2287 36.5223 38.9728 35.5531 38.4609C34.5893 37.9437 33.8461 37.2031 33.3233 36.2393C32.806 35.2701 32.5474 34.1103 32.5474 32.7599C32.5474 31.464 32.8088 30.3314 33.3315 29.3622C33.8542 28.393 34.592 27.6388 35.5449 27.0998C36.4978 26.5607 37.6222 26.2912 38.9181 26.2912C39.8656 26.2912 40.7232 26.4382 41.4909 26.7322C42.2587 27.0263 42.9148 27.4537 43.4593 28.0146C44.0038 28.57 44.4231 29.2451 44.7172 30.0401C45.0112 30.8351 45.1582 31.7308 45.1582 32.7273V33.7727H33.9522V31.2898H41.0091C41.0036 30.9304 40.911 30.6146 40.7314 30.3423C40.5571 30.0646 40.3203 29.8496 40.0208 29.6971C39.7267 29.5392 39.3919 29.4602 39.0162 29.4602C38.6513 29.4602 38.3165 29.5392 38.0115 29.6971C37.7066 29.8496 37.4616 30.0619 37.2765 30.3342C37.0968 30.6064 37.0015 30.925 36.9906 31.2898V33.9688C36.9906 34.3717 37.075 34.7311 37.2438 35.0469C37.4126 35.3627 37.6549 35.6104 37.9707 35.7901C38.2865 35.9698 38.6677 36.0597 39.1142 36.0597C39.4245 36.0597 39.7077 36.0161 39.9636 35.929C40.225 35.8419 40.4482 35.7166 40.6333 35.5533C40.8185 35.3845 40.9546 35.183 41.0417 34.9489H45.1582C45.0166 35.8201 44.6818 36.5769 44.1536 37.2195C43.6254 37.8565 42.9257 38.352 42.0545 38.706C41.1887 39.0545 40.176 39.2287 39.0162 39.2287ZM51.5065 31.9432V39H46.998V26.4545H51.2778V28.8395H51.4085C51.6807 28.0445 52.1599 27.421 52.846 26.9691C53.5375 26.5172 54.3434 26.2912 55.2636 26.2912C56.1511 26.2912 56.9216 26.4954 57.575 26.9038C58.2339 27.3067 58.743 27.8621 59.1024 28.57C59.4672 29.2778 59.6469 30.0864 59.6414 30.9957V39H55.1329V31.9432C55.1383 31.3224 54.9804 30.8351 54.6592 30.4812C54.3434 30.1272 53.9023 29.9503 53.336 29.9503C52.9658 29.9503 52.6418 30.032 52.3641 30.1953C52.0918 30.3532 51.8822 30.5819 51.7352 30.8814C51.5882 31.1754 51.5119 31.5294 51.5065 31.9432Z" fill="#126F77"/>
</g>
<defs>
<clipPath id="clip0_853_18535">
<rect width="106" height="40" fill="white"/>
</clipPath>
</defs>
</svg>
