<svg width="50" height="50" viewBox="0 0 50 50" fill="none" xmlns="http://www.w3.org/2000/svg">
<path d="M7 24.7763C8.54333 23.6163 10.4 23.0796 12.43 22.8896L12.5667 23.753C11.1833 24.1196 9.84 24.5263 8.94333 25.4196L11.3333 28.803C10.6667 28.6596 9.80333 28.9063 9.03 27.7563L7 24.7763Z" fill="#126D74"/>
<path d="M37.0334 19.1971L35.3667 28.8071C35.18 29.8705 34.7634 30.0338 33.83 30.3771L35.42 20.6338C34.8534 20.2738 33.0534 20.5371 31.9867 20.6904C33.2734 19.7104 34.6834 19.1338 37.0334 19.1971Z" fill="#126D74"/>
<path d="M24.2333 27.1102C22.3366 22.7769 19.5066 19.8636 15.97 18.0502C17.9466 18.5102 22.97 18.3402 24.2333 12.7402V27.1102Z" fill="#F36D2B"/>
<path d="M40.8067 25.4236C39.9134 24.5269 38.5667 24.1202 37.1833 23.7569L37.32 22.8936C39.35 23.0836 41.2067 23.6202 42.75 24.7802L40.75 27.7602C39.9767 28.9102 39.1067 28.6636 38.4467 28.8069L40.8067 25.4236Z" fill="#126D74"/>
<path d="M33.7899 18.0502C30.2533 19.8636 27.4233 22.7736 25.5266 27.1102V12.7402C26.7899 18.3336 31.8133 18.5102 33.7899 18.0502Z" fill="#F36D2B"/>
<path d="M30.17 16.6401C31.1954 16.6401 32.0267 15.8088 32.0267 14.7834C32.0267 13.758 31.1954 12.9268 30.17 12.9268C29.1446 12.9268 28.3134 13.758 28.3134 14.7834C28.3134 15.8088 29.1446 16.6401 30.17 16.6401Z" fill="#126D74"/>
<path d="M49.3333 24.7197C45.7733 37.3864 36.1166 37.4597 24.09 38.7197C28.23 39.5964 33.2633 39.7831 38.4233 39.3231C35.3285 41.2686 31.8505 42.524 28.2266 43.0038C24.6026 43.4835 20.9178 43.1763 17.4233 42.1031C19.8852 41.9351 22.3175 41.4684 24.6667 40.7131C16.6033 40.8531 11.91 41.1864 6.25332 35.0764C13.6967 36.4097 21.56 36.6697 27.4867 35.7764C18.3267 34.8531 3.35999 35.0864 0.446655 24.7197C7.52032 29.9505 16.0857 32.7734 24.8833 32.7734C33.6809 32.7734 42.2463 29.9505 49.32 24.7197H49.3333Z" fill="#126D74"/>
<path d="M25.8467 9.72633L26.4533 11.573L24.88 10.4263L23.31 11.573L23.9133 9.72633L22.3367 8.58633L24.2833 8.58966L24.88 6.73633L25.4767 8.58966L27.4233 8.58633L25.8467 9.72633Z" fill="#126D74"/>
<path d="M16.2134 25.3564C18.2451 25.46 20.1976 26.1771 21.8134 27.4131C20.036 26.941 18.2136 26.6583 16.3767 26.5698L16.2134 25.3564Z" fill="#126D74"/>
<path d="M16.2134 27.9229C18.2451 28.0264 20.1976 28.7435 21.8134 29.9795C20.036 29.5074 18.2136 29.2247 16.3767 29.1362L16.2134 27.9229Z" fill="#126D74"/>
<path d="M33.5467 24.9229L33.3833 26.1362C31.5464 26.2247 29.724 26.5074 27.9467 26.9795C29.5624 25.7435 31.515 25.0264 33.5467 24.9229Z" fill="#126D74"/>
<path d="M34.0233 21.8096L33.86 23.0229C32.0233 23.1131 30.2011 23.3957 28.4233 23.8662C30.0398 22.6315 31.992 21.9146 34.0233 21.8096Z" fill="#126D74"/>
<path d="M33.0734 28.0371L32.9101 29.2504C31.0731 29.3385 29.2507 29.6212 27.4734 30.0938C29.0889 28.8572 31.0416 28.1401 33.0734 28.0371Z" fill="#126D74"/>
<path d="M15.7367 21.8096C17.7669 21.9153 19.7178 22.6322 21.3334 23.8662C19.5557 23.3952 17.7335 23.1126 15.8967 23.0229L15.7367 21.8096Z" fill="#126D74"/>
<path d="M14.4067 28.8071L12.74 19.1971C15.09 19.1338 16.5033 19.7104 17.8 20.6904C16.7333 20.5371 14.9333 20.2738 14.37 20.6338L15.9567 30.3771C15 30.0338 14.5933 29.8705 14.4067 28.8071Z" fill="#126D74"/>
<path d="M19.5901 16.6401C20.6155 16.6401 21.4467 15.8088 21.4467 14.7834C21.4467 13.758 20.6155 12.9268 19.5901 12.9268C18.5646 12.9268 17.7334 13.758 17.7334 14.7834C17.7334 15.8088 18.5646 16.6401 19.5901 16.6401Z" fill="#126D74"/>
</svg>
