<svg width="20" height="20" viewBox="0 0 20 20" fill="none" xmlns="http://www.w3.org/2000/svg">
<path d="M6.26667 5.46667V4.4C6.26667 4.32928 6.23857 4.26145 6.18856 4.21144C6.13855 4.16143 6.07072 4.13333 6 4.13333H2.26667C2.19594 4.13333 2.12811 4.16143 2.0781 4.21144C2.0281 4.26145 2 4.32928 2 4.4V5.46667H6.26667ZM2 6V14.8H6.26667V6H2ZM5.2 9.46667H3.06667C2.99594 9.46667 2.92811 9.43857 2.8781 9.38856C2.8281 9.33855 2.8 9.27072 2.8 9.2V7.06667C2.8 6.99594 2.8281 6.92811 2.8781 6.87811C2.92811 6.8281 2.99594 6.8 3.06667 6.8H5.2C5.27072 6.8 5.33855 6.8281 5.38856 6.87811C5.43857 6.92811 5.46667 6.99594 5.46667 7.06667V9.2C5.46667 9.27072 5.43857 9.33855 5.38856 9.38856C5.33855 9.43857 5.27072 9.46667 5.2 9.46667ZM2 16.4V17.7333C2 17.8041 2.0281 17.8719 2.0781 17.9219C2.12811 17.9719 2.19594 18 2.26667 18H6C6.07072 18 6.13855 17.9719 6.18856 17.9219C6.23857 17.8719 6.26667 17.8041 6.26667 17.7333V16.4H2ZM2 15.3333H6.26667V15.8667H2V15.3333ZM6.8 15.3333H10.2667V15.8667H6.8V15.3333ZM10.2667 3.06667V2.26667C10.2667 2.19594 10.2386 2.12811 10.1886 2.0781C10.1386 2.0281 10.0707 2 10 2H7.06667C6.99594 2 6.92811 2.0281 6.8781 2.0781C6.82809 2.12811 6.8 2.19594 6.8 2.26667V3.06667H10.2667ZM6.8 4.93333H10.2667V14.8H6.8V4.93333ZM6.8 16.4V17.7333C6.8 17.8041 6.82809 17.8719 6.8781 17.9219C6.92811 17.9719 6.99594 18 7.06667 18H10C10.0707 18 10.1386 17.9719 10.1886 17.9219C10.2386 17.8719 10.2667 17.8041 10.2667 17.7333V16.4H6.8ZM6.8 3.6H10.2667V4.4H6.8V3.6ZM10.7936 7.52213L10.9363 8.06993L15.4525 6.8656L15.3096 6.31783L10.7936 7.52213ZM13.0221 16.0649L17.5381 14.8605L17.2522 13.7643L12.7359 14.9686L13.0221 16.0649ZM17.1176 13.2483L15.5872 7.38163L11.071 8.58593L12.6013 14.4526L17.1176 13.2483Z" fill="#F59E0B"/>
<path d="M10.6583 7.00644L15.1742 5.80227L14.7914 4.3336C14.7724 4.26523 14.7275 4.20694 14.6663 4.17111C14.6051 4.13528 14.5323 4.12473 14.4634 4.1417L10.4634 5.20837C10.3955 5.22695 10.3376 5.27144 10.3021 5.33227C10.2667 5.3931 10.2566 5.46541 10.2739 5.53364L10.6583 7.00644ZM17.6721 15.3768L13.1558 16.5812L13.4739 17.8003C13.483 17.8344 13.4988 17.8663 13.5203 17.8942C13.5419 17.9221 13.5687 17.9455 13.5993 17.9631C13.6395 17.9874 13.6856 18.0003 13.7326 18.0003C13.756 18.0003 13.7792 17.9976 13.8019 17.9924L17.8019 16.9257C17.8698 16.9071 17.9277 16.8626 17.9631 16.8017C17.9986 16.7409 18.0087 16.6686 17.9914 16.6003L17.6721 15.3768Z" fill="#F59E0B"/>
</svg>
