<svg width="10" height="10" viewBox="0 0 10 10" fill="none" xmlns="http://www.w3.org/2000/svg">
<path fill-rule="evenodd" clip-rule="evenodd" d="M1.19921 1.19226H2.63151V0.404451C2.63151 0.291947 2.72326 0.200195 2.83577 0.200195H3.29616C3.40866 0.200195 3.50041 0.291947 3.50041 0.404451V1.19226H6.49804V0.404451C6.49804 0.291947 6.5898 0.200195 6.7023 0.200195H7.16269C7.2752 0.200195 7.36695 0.291947 7.36695 0.404451V1.19226H8.79925C9.35002 1.19226 9.79924 1.64148 9.79924 2.19226V2.83299H0.199219V2.19226C0.199219 1.64148 0.648438 1.19226 1.19921 1.19226ZM9.79922 3.32322V8.8002C9.79922 9.35098 9.35 9.8002 8.79923 9.8002H1.19921C0.648438 9.8002 0.199219 9.35098 0.199219 8.8002V3.32322H9.79922ZM1.79807 4.51846V5.75892H3.03851V4.51846H1.79807ZM1.79807 7.11939V8.35985H3.03851V7.11939H1.79807ZM6.95993 7.11939V8.35985H8.20039V7.11939H6.95993ZM4.379 7.11939V8.35985H5.61944V7.11939H4.379ZM6.95993 4.51846V5.75892H8.20039V4.51846H6.95993ZM4.379 4.51846V5.75892H5.61944V4.51846H4.379Z" fill="#6B7280"/>
</svg>
