<svg width="12" height="12" viewBox="0 0 12 12" fill="none" xmlns="http://www.w3.org/2000/svg">
<path d="M11.41 7.86392C11.2844 7.74146 11.1318 7.68018 10.9524 7.68018H7.82918L6.91381 8.57263C6.65354 8.81759 6.34843 8.94012 5.99844 8.94012C5.64851 8.94012 5.34331 8.81775 5.08306 8.57263L4.17441 7.68018H1.04458C0.86513 7.68018 0.712575 7.74152 0.586897 7.86392C0.461242 7.98639 0.398438 8.13515 0.398438 8.31023V10.4101C0.398438 10.5851 0.461242 10.7339 0.586897 10.8564C0.712552 10.9788 0.865106 11.04 1.04458 11.04H10.9524C11.1318 11.04 11.2845 10.9788 11.41 10.8564C11.5357 10.7339 11.5984 10.5851 11.5984 10.4101V8.31023C11.5984 8.13515 11.5357 7.98639 11.41 7.86392ZM8.88605 10.0754C8.80069 10.1586 8.69969 10.2001 8.58302 10.2001C8.46635 10.2001 8.36549 10.1586 8.28015 10.0754C8.19495 9.9923 8.15235 9.8939 8.15235 9.78022C8.15235 9.66649 8.19495 9.56792 8.28015 9.48492C8.36549 9.40172 8.46635 9.36009 8.58302 9.36009C8.69969 9.36009 8.80067 9.40172 8.88605 9.48492C8.97123 9.5679 9.01385 9.66646 9.01385 9.78022C9.01385 9.89388 8.97123 9.9923 8.88605 10.0754ZM10.609 10.0754C10.5238 10.1586 10.4228 10.2001 10.3061 10.2001C10.1895 10.2001 10.0885 10.1586 10.0033 10.0754C9.91808 9.9923 9.87548 9.8939 9.87548 9.78022C9.87548 9.66649 9.91808 9.56792 10.0033 9.48492C10.0885 9.40172 10.1894 9.36009 10.3061 9.36009C10.4228 9.36009 10.5238 9.40172 10.609 9.48492C10.6943 9.5679 10.737 9.66646 10.737 9.78022C10.737 9.89388 10.6944 9.9923 10.609 10.0754Z" fill="white"/>
<path d="M5.6971 7.97532C5.77791 8.05837 5.87886 8.09993 5.99996 8.09993C6.12116 8.09993 6.22199 8.05837 6.30283 7.97532L9.31825 5.0353C9.45732 4.90845 9.48879 4.75529 9.41248 4.57592C9.33633 4.40534 9.20391 4.32004 9.01538 4.31995H7.29226V1.37997C7.29226 1.26624 7.24956 1.1678 7.16446 1.08468C7.07911 1.00154 6.97819 0.959961 6.86159 0.959961H5.13834C5.02174 0.959961 4.92077 1.00154 4.83547 1.08468C4.75025 1.1678 4.7076 1.26622 4.7076 1.37997V4.31997H2.98452C2.79597 4.31997 2.66367 4.40536 2.58738 4.57594C2.51114 4.75525 2.54251 4.90847 2.68165 5.03533L5.6971 7.97532Z" fill="white"/>
</svg>
