<svg width="16" height="14" viewBox="0 0 16 14" fill="none" xmlns="http://www.w3.org/2000/svg">
<path d="M14.9584 9.3964C14.7971 9.23894 14.6008 9.16016 14.3701 9.16016H10.3546L9.17769 10.3076C8.84306 10.6225 8.45078 10.7801 8.00078 10.7801C7.55088 10.7801 7.15847 10.6227 6.82387 10.3076L5.6556 9.16016H1.63154C1.40081 9.16016 1.20467 9.23903 1.04309 9.3964C0.881529 9.55386 0.800781 9.74512 0.800781 9.97023V12.6701C0.800781 12.8951 0.881529 13.0864 1.04309 13.2438C1.20464 13.4013 1.40078 13.48 1.63154 13.48H14.3701C14.6008 13.48 14.7971 13.4013 14.9585 13.2438C15.1201 13.0864 15.2008 12.8951 15.2008 12.6701V9.97023C15.2008 9.74512 15.1201 9.55386 14.9584 9.3964ZM11.7134 12.2398C11.6037 12.3467 11.4738 12.4001 11.3238 12.4001C11.1738 12.4001 11.0441 12.3467 10.9344 12.2398C10.8249 12.1329 10.7701 12.0064 10.7701 11.8602C10.7701 11.714 10.8249 11.5873 10.9344 11.4805C11.0441 11.3736 11.1738 11.32 11.3238 11.32C11.4738 11.32 11.6036 11.3736 11.7134 11.4805C11.8229 11.5872 11.8777 11.714 11.8777 11.8602C11.8777 12.0063 11.8229 12.1329 11.7134 12.2398ZM13.9287 12.2398C13.8191 12.3467 13.6893 12.4001 13.5392 12.4001C13.3893 12.4001 13.2595 12.3467 13.1498 12.2398C13.0403 12.1329 12.9855 12.0064 12.9855 11.8602C12.9855 11.714 13.0403 11.5873 13.1498 11.4805C13.2595 11.3736 13.3892 11.32 13.5392 11.32C13.6892 11.32 13.8191 11.3736 13.9287 11.4805C14.0383 11.5872 14.0932 11.714 14.0932 11.8602C14.0932 12.0063 14.0384 12.1329 13.9287 12.2398Z" fill="black"/>
<path d="M7.60888 9.53977C7.71278 9.64655 7.84257 9.69998 7.99828 9.69998C8.15411 9.69998 8.28375 9.64655 8.38768 9.53977L12.2646 5.75974C12.4435 5.59664 12.4839 5.39973 12.3858 5.1691C12.2879 4.94979 12.1176 4.84012 11.8752 4.84H9.6598V1.06004C9.6598 0.913809 9.6049 0.787235 9.49548 0.680372C9.38576 0.57348 9.256 0.52002 9.10608 0.52002H6.89048C6.74056 0.52002 6.61074 0.57348 6.50108 0.680372C6.3915 0.787235 6.33667 0.91378 6.33667 1.06004V4.84003H4.12128C3.87886 4.84003 3.70875 4.94982 3.61067 5.16913C3.51264 5.39967 3.55299 5.59667 3.73188 5.75977L7.60888 9.53977Z" fill="black"/>
</svg>
