<svg width="30" height="30" viewBox="0 0 30 30" fill="none" xmlns="http://www.w3.org/2000/svg">
<rect width="30" height="30" rx="15" fill="#FFEFF0"/>
<path d="M20.7873 12.8407L15.1523 10.5273C15.1089 10.5093 15.0622 10.5 15.0151 10.5C14.9679 10.5 14.9212 10.5093 14.8778 10.5273L9.21491 12.8324C9.15116 12.8597 9.09694 12.9043 9.05879 12.9609C9.02065 13.0175 9.00023 13.0837 9 13.1513C8.99977 13.219 9.01975 13.2852 9.05751 13.3421C9.09528 13.3989 9.1492 13.4439 9.21276 13.4716C9.54748 13.6109 11.5067 14.409 11.7816 14.5252L14.8778 15.7933C14.9661 15.8275 15.0646 15.8267 15.1523 15.7912C16.1472 15.3835 18.7147 14.3295 19.6702 13.9359C19.668 14.1937 19.6719 16.3672 19.6702 16.6824C19.2443 16.7867 19.0713 17.4918 19.31 17.8735L18.9947 19.2477C18.9847 19.289 18.9882 19.3322 19.0048 19.3714C19.0213 19.4106 19.05 19.4438 19.087 19.4664C19.1236 19.4897 19.1668 19.5014 19.2105 19.4999C19.2543 19.4984 19.2965 19.4838 19.3314 19.458C19.4838 19.3487 19.6673 19.2876 19.8567 19.2831C20.0583 19.2802 20.2552 19.3425 20.4164 19.4601C20.4526 19.485 20.4959 19.4984 20.5403 19.4987C20.5847 19.4989 20.6281 19.4858 20.6646 19.4613C20.7011 19.4367 20.729 19.4019 20.7444 19.3614C20.7598 19.321 20.7621 19.277 20.7509 19.2352L20.3499 17.8672C20.5562 17.5236 20.444 16.9067 20.099 16.7345C20.101 16.4165 20.0977 14.0113 20.099 13.761L20.7873 13.4779C20.8507 13.4504 20.9044 13.4056 20.9422 13.3491C20.9799 13.2926 21 13.2266 21 13.1593C21 13.0919 20.9799 13.026 20.9422 12.9694C20.9044 12.9129 20.8507 12.8682 20.7873 12.8407Z" fill="#DC2626"/>
<path d="M14.7094 16.1763C14.4513 16.0705 11.5107 14.8637 11.3516 14.7999V16.828C11.353 16.9369 11.3817 17.0438 11.4351 17.1396C11.4885 17.2353 11.5651 17.3171 11.6582 17.3777C12.6009 18.0001 13.7072 18.3476 14.8467 18.3793C16.0952 18.4034 17.3216 18.0561 18.3611 17.384C18.4565 17.323 18.5351 17.2403 18.5901 17.143C18.645 17.0457 18.6746 16.9369 18.6763 16.8259V14.7979C18.5275 14.8605 15.5708 16.0726 15.3184 16.1763C15.1234 16.2543 14.9045 16.2543 14.7094 16.1763Z" fill="#DC2626"/>
</svg>
