<svg width="14" height="14" viewBox="0 0 14 14" fill="none" xmlns="http://www.w3.org/2000/svg">
<path d="M5.96318 12.3197C5.85315 12.3197 5.74762 12.2757 5.66982 12.1975C5.59201 12.1192 5.5483 12.0131 5.5483 11.9024V7.89053L1.70234 3.63661C1.55094 3.46883 1.45123 3.26045 1.41529 3.03678C1.37936 2.8131 1.40875 2.58374 1.4999 2.37654C1.59105 2.16934 1.74004 1.9932 1.92879 1.8695C2.11754 1.74581 2.33793 1.67987 2.56322 1.67969H11.4376C11.6628 1.67987 11.8832 1.74581 12.072 1.8695C12.2607 1.9932 12.4097 2.16934 12.5009 2.37654C12.592 2.58374 12.6214 2.8131 12.5855 3.03678C12.5496 3.26045 12.4498 3.46883 12.2984 3.63661L8.45248 7.89053V10.2334C8.45244 10.2959 8.43844 10.3576 8.41151 10.4139C8.38458 10.4703 8.34541 10.5198 8.2969 10.5589L6.22249 12.2279C6.14894 12.2872 6.05748 12.3196 5.96318 12.3197ZM2.56322 2.5142C2.49866 2.51436 2.43553 2.53334 2.38147 2.56883C2.32741 2.60433 2.28474 2.65482 2.25863 2.7142C2.23251 2.77358 2.22406 2.8393 2.23431 2.9034C2.24456 2.96751 2.27306 3.02725 2.31637 3.0754L6.2702 7.45658C6.33794 7.5315 6.37628 7.62864 6.37807 7.72988V11.0345L7.62271 10.0248V7.72988C7.62247 7.62575 7.66094 7.52529 7.73058 7.44824L11.6844 3.06706C11.7251 3.01869 11.7514 2.95972 11.7602 2.89696C11.7691 2.8342 11.76 2.77021 11.7342 2.71239C11.7084 2.65457 11.6668 2.60528 11.6144 2.57021C11.5619 2.53514 11.5006 2.51572 11.4376 2.5142H2.56322Z" fill="#6B7280"/>
</svg>
