<svg width="8" height="8" viewBox="0 0 8 8" fill="none" xmlns="http://www.w3.org/2000/svg">
<path d="M2 0H0.4C0.293913 0 0.192172 0.0421427 0.117157 0.117157C0.0421427 0.192172 0 0.293913 0 0.4V2C0 2.10609 0.0421427 2.20783 0.117157 2.28284C0.192172 2.35786 0.293913 2.4 0.4 2.4H2C2.10609 2.4 2.20783 2.35786 2.28284 2.28284C2.35786 2.20783 2.4 2.10609 2.4 2V0.4C2.4 0.293913 2.35786 0.192172 2.28284 0.117157C2.20783 0.0421427 2.10609 0 2 0ZM4.8 0H3.2C3.09391 0 2.99217 0.0421427 2.91716 0.117157C2.84214 0.192172 2.8 0.293913 2.8 0.4V2C2.8 2.10609 2.84214 2.20783 2.91716 2.28284C2.99217 2.35786 3.09391 2.4 3.2 2.4H4.8C4.90609 2.4 5.00783 2.35786 5.08284 2.28284C5.15786 2.20783 5.2 2.10609 5.2 2V0.4C5.2 0.293913 5.15786 0.192172 5.08284 0.117157C5.00783 0.0421427 4.90609 0 4.8 0ZM7.6 0H6C5.89391 0 5.79217 0.0421427 5.71716 0.117157C5.64214 0.192172 5.6 0.293913 5.6 0.4V2C5.6 2.10609 5.64214 2.20783 5.71716 2.28284C5.79217 2.35786 5.89391 2.4 6 2.4H7.6C7.70609 2.4 7.80783 2.35786 7.88284 2.28284C7.95786 2.20783 8 2.10609 8 2V0.4C8 0.293913 7.95786 0.192172 7.88284 0.117157C7.80783 0.0421427 7.70609 0 7.6 0ZM2 5.6H0.4C0.293913 5.6 0.192172 5.64214 0.117157 5.71716C0.0421427 5.79217 0 5.89391 0 6V7.6C0 7.70609 0.0421427 7.80783 0.117157 7.88284C0.192172 7.95786 0.293913 8 0.4 8H2C2.10609 8 2.20783 7.95786 2.28284 7.88284C2.35786 7.80783 2.4 7.70609 2.4 7.6V6C2.4 5.89391 2.35786 5.79217 2.28284 5.71716C2.20783 5.64214 2.10609 5.6 2 5.6ZM4.8 5.6H3.2C3.09391 5.6 2.99217 5.64214 2.91716 5.71716C2.84214 5.79217 2.8 5.89391 2.8 6V7.6C2.8 7.70609 2.84214 7.80783 2.91716 7.88284C2.99217 7.95786 3.09391 8 3.2 8H4.8C4.90609 8 5.00783 7.95786 5.08284 7.88284C5.15786 7.80783 5.2 7.70609 5.2 7.6V6C5.2 5.89391 5.15786 5.79217 5.08284 5.71716C5.00783 5.64214 4.90609 5.6 4.8 5.6ZM7.6 5.6H6C5.89391 5.6 5.79217 5.64214 5.71716 5.71716C5.64214 5.79217 5.6 5.89391 5.6 6V7.6C5.6 7.70609 5.64214 7.80783 5.71716 7.88284C5.79217 7.95786 5.89391 8 6 8H7.6C7.70609 8 7.80783 7.95786 7.88284 7.88284C7.95786 7.80783 8 7.70609 8 7.6V6C8 5.89391 7.95786 5.79217 7.88284 5.71716C7.80783 5.64214 7.70609 5.6 7.6 5.6ZM2 2.8H0.4C0.293913 2.8 0.192172 2.84214 0.117157 2.91716C0.0421427 2.99217 0 3.09391 0 3.2V4.8C0 4.90609 0.0421427 5.00783 0.117157 5.08284C0.192172 5.15786 0.293913 5.2 0.4 5.2H2C2.10609 5.2 2.20783 5.15786 2.28284 5.08284C2.35786 5.00783 2.4 4.90609 2.4 4.8V3.2C2.4 3.09391 2.35786 2.99217 2.28284 2.91716C2.20783 2.84214 2.10609 2.8 2 2.8ZM4.8 2.8H3.2C3.09391 2.8 2.99217 2.84214 2.91716 2.91716C2.84214 2.99217 2.8 3.09391 2.8 3.2V4.8C2.8 4.90609 2.84214 5.00783 2.91716 5.08284C2.99217 5.15786 3.09391 5.2 3.2 5.2H4.8C4.90609 5.2 5.00783 5.15786 5.08284 5.08284C5.15786 5.00783 5.2 4.90609 5.2 4.8V3.2C5.2 3.09391 5.15786 2.99217 5.08284 2.91716C5.00783 2.84214 4.90609 2.8 4.8 2.8ZM7.6 2.8H6C5.89391 2.8 5.79217 2.84214 5.71716 2.91716C5.64214 2.99217 5.6 3.09391 5.6 3.2V4.8C5.6 4.90609 5.64214 5.00783 5.71716 5.08284C5.79217 5.15786 5.89391 5.2 6 5.2H7.6C7.70609 5.2 7.80783 5.15786 7.88284 5.08284C7.95786 5.00783 8 4.90609 8 4.8V3.2C8 3.09391 7.95786 2.99217 7.88284 2.91716C7.80783 2.84214 7.70609 2.8 7.6 2.8Z" fill="white"/>
</svg>
