<svg width="16" height="12" viewBox="0 0 16 12" fill="none" xmlns="http://www.w3.org/2000/svg">
<path d="M15.7164 3.12092L8.20305 0.0364395C8.14522 0.0123968 8.08297 0 8.02007 0C7.95717 0 7.89492 0.0123968 7.8371 0.0364395L0.286541 3.10982C0.20155 3.14621 0.129247 3.20575 0.0783905 3.28122C0.0275337 3.3567 0.000305105 3.44488 2.5491e-06 3.53508C-0.000300007 3.62528 0.0263365 3.71363 0.0766859 3.78943C0.127035 3.86523 0.198937 3.92522 0.283683 3.96215C0.729969 4.14788 3.34222 5.21204 3.70874 5.36696L7.8371 7.05774C7.95476 7.10333 8.08613 7.10233 8.20305 7.05496C9.52961 6.51136 12.9529 5.10599 14.2269 4.58127C14.224 4.92497 14.2292 7.82289 14.2269 8.24322C13.6591 8.38232 13.4284 9.32238 13.7466 9.83127L13.3263 11.6636C13.313 11.7186 13.3177 11.7763 13.3397 11.8285C13.3617 11.8808 13.4 11.9251 13.4493 11.9552C13.4981 11.9862 13.5557 12.0018 13.614 11.9998C13.6724 11.9978 13.7287 11.9784 13.7752 11.9441C13.9784 11.7983 14.223 11.7168 14.4756 11.7108C14.7444 11.707 15.0069 11.79 15.2218 11.9468C15.2702 11.98 15.3279 11.9979 15.3871 11.9982C15.4463 11.9985 15.5041 11.9811 15.5528 11.9483C15.6015 11.9156 15.6386 11.8692 15.6592 11.8153C15.6798 11.7614 15.6828 11.7026 15.6678 11.647L15.1332 9.82295C15.4082 9.36485 15.2587 8.54223 14.7987 8.31263C14.8013 7.88869 14.797 4.68177 14.7987 4.34805L15.7164 3.97048C15.8009 3.93381 15.8726 3.87419 15.9229 3.79881C15.9732 3.72344 16 3.63553 16 3.5457C16 3.45587 15.9732 3.36796 15.9229 3.29259C15.8726 3.21721 15.8009 3.15759 15.7164 3.12092Z" fill="#1D4ED8"/>
<path d="M7.61388 7.56839C7.26965 7.42735 3.34885 5.8182 3.13672 5.73325V8.43738C3.13867 8.58256 3.17689 8.72511 3.24811 8.85278C3.31932 8.98045 3.42139 9.08942 3.54555 9.17032C4.80248 10.0001 6.27759 10.4635 7.79685 10.5057C9.46163 10.5378 11.0967 10.0748 12.4827 9.17865C12.61 9.09736 12.7148 8.98705 12.7881 8.85735C12.8613 8.72765 12.9008 8.58251 12.903 8.4346V5.73047C12.7046 5.81404 8.76233 7.43013 8.42583 7.56839C8.16578 7.67245 7.87392 7.67245 7.61388 7.56839Z" fill="#1D4ED8"/>
</svg>
