<svg width="10" height="10" viewBox="0 0 10 10" fill="none" xmlns="http://www.w3.org/2000/svg">
<path d="M7.79945 4.99994C7.57825 4.99994 7.39946 5.17917 7.39946 5.39992V8.60006C7.39946 8.82045 7.22022 9.00004 6.99947 9.00004H1.39926C1.17843 9.00004 0.99927 8.82045 0.99927 8.60006V2.99984C0.99927 2.77945 1.17843 2.59986 1.39926 2.59986H4.59939C4.82059 2.59986 4.99938 2.42064 4.99938 2.19987C4.99938 1.97904 4.82059 1.7998 4.59939 1.7998H1.39926C0.737643 1.7998 0.199219 2.33823 0.199219 2.99984V8.60006C0.199219 9.26169 0.737643 9.8001 1.39926 9.8001H6.99947C7.66109 9.8001 8.19951 9.26169 8.19951 8.60006V5.39992C8.19951 5.17874 8.02063 4.99994 7.79945 4.99994Z" fill="white"/>
<path d="M3.95085 4.63563C3.92305 4.66356 3.90401 4.699 3.89606 4.7376L3.61327 6.15211C3.60009 6.21766 3.62088 6.28526 3.66806 6.33286C3.68667 6.35142 3.70877 6.36613 3.73307 6.37615C3.75737 6.38617 3.78341 6.3913 3.8097 6.39125C3.82245 6.39125 3.83571 6.39007 3.84889 6.3873L5.26295 6.1045C5.30214 6.09644 5.33773 6.07769 5.36534 6.04964L8.53026 2.88472L7.11618 1.47073L3.95085 4.63563ZM9.50784 0.492719C9.11789 0.102687 8.48344 0.102687 8.09379 0.492719L7.54019 1.04629L8.95425 2.46035L9.50784 1.9067C9.69666 1.71832 9.80067 1.46708 9.80067 1.19988C9.80067 0.932684 9.69666 0.681463 9.50784 0.492719Z" fill="white"/>
</svg>
