<svg width="14" height="14" viewBox="0 0 14 14" fill="none" xmlns="http://www.w3.org/2000/svg">
<path d="M6.04492 1.3999H2.55906C2.38298 1.3999 2.24023 1.54682 2.24023 1.72803V5.31557C2.24023 5.49679 2.38298 5.6437 2.55906 5.6437H6.04492C6.221 5.6437 6.36375 5.49679 6.36375 5.31557V1.72803C6.36375 1.54682 6.221 1.3999 6.04492 1.3999ZM6.04492 6.56246H2.55906C2.38298 6.56246 2.24023 6.70938 2.24023 6.89059V10.4781C2.24023 10.6593 2.38298 10.8063 2.55906 10.8063H6.04492C6.221 10.8063 6.36375 10.6593 6.36375 10.4781V6.89059C6.36375 6.70938 6.221 6.56246 6.04492 6.56246ZM10.967 9.60837L9.86979 9.35856L9.84854 9.35528V6.99428C9.84852 6.61096 9.5465 6.29992 9.1739 6.29996C8.80129 6.29996 8.49904 6.61081 8.49904 6.99428L8.49479 10.6173C8.49479 10.7986 8.35217 10.9454 8.17596 10.9454C7.99997 10.9454 7.85714 10.7986 7.85714 10.6173V9.33822C7.3874 9.62281 7.11002 10.1938 7.22819 10.7896C7.2841 11.2295 7.58316 12.0133 7.73789 12.3964C7.78721 12.5187 7.90326 12.5983 8.03207 12.5983L10.8909 12.5999C10.9545 12.5999 11.0166 12.5804 11.0694 12.5438C11.1221 12.5071 11.163 12.4551 11.1868 12.3944C11.3106 12.0782 11.5487 11.456 11.7096 10.9486C11.8956 10.3635 11.5511 9.74116 10.967 9.60837ZM7.57529 5.6437H11.0611C11.2371 5.6437 11.38 5.4967 11.38 5.31557V1.72803C11.38 1.5469 11.2371 1.3999 11.0611 1.3999H7.57529C7.3993 1.3999 7.25646 1.5469 7.25646 1.72803V5.31557C7.25646 5.4967 7.3993 5.6437 7.57529 5.6437ZM8.55601 3.13111C8.68056 3.00314 8.88249 3.00314 9.00704 3.13111L9.18537 3.31486L9.6294 2.85767C9.75395 2.7297 9.95588 2.7297 10.0804 2.85767C10.2048 2.98586 10.2048 3.19367 10.0804 3.32186L9.41089 4.01093C9.38128 4.04141 9.34612 4.06558 9.30742 4.08206C9.26873 4.09854 9.22725 4.107 9.18537 4.10697C9.10375 4.10697 9.02213 4.07503 8.95986 4.01093L8.55601 3.5953C8.43166 3.46711 8.43166 3.2593 8.55601 3.13111Z" fill="#6B7280"/>
</svg>
