<svg width="12" height="12" viewBox="0 0 12 12" fill="none" xmlns="http://www.w3.org/2000/svg">
<path d="M2.98293 4.97161H9.15445C9.22225 4.97159 9.28852 4.95148 9.34489 4.9138C9.40126 4.87613 9.4452 4.82258 9.47114 4.75994C9.49709 4.6973 9.50388 4.62838 9.49065 4.56188C9.47743 4.49538 9.44479 4.43429 9.39685 4.38634L6.31109 1.30058C6.24679 1.2363 6.1596 1.2002 6.06869 1.2002C5.97777 1.2002 5.89058 1.2363 5.82628 1.30058L2.74052 4.38634C2.69259 4.43429 2.65994 4.49538 2.64672 4.56188C2.6335 4.62838 2.64029 4.6973 2.66623 4.75994C2.69218 4.82258 2.73611 4.87613 2.79248 4.9138C2.84885 4.95148 2.91512 4.97159 2.98293 4.97161ZM9.15445 7.02878H2.98293C2.91512 7.0288 2.84885 7.04891 2.79248 7.08659C2.73611 7.12426 2.69218 7.17781 2.66623 7.24045C2.64029 7.30309 2.6335 7.37202 2.64672 7.43851C2.65994 7.50501 2.69259 7.5661 2.74052 7.61405L5.82628 10.6998C5.89058 10.7641 5.97777 10.8002 6.06869 10.8002C6.1596 10.8002 6.24679 10.7641 6.31109 10.6998L9.39685 7.61405C9.44479 7.5661 9.47743 7.50501 9.49065 7.43851C9.50388 7.37202 9.49709 7.30309 9.47114 7.24045C9.4452 7.17781 9.40126 7.12426 9.34489 7.08659C9.28852 7.04891 9.22225 7.0288 9.15445 7.02878Z" fill="#6B7280"/>
</svg>
