<svg width="10" height="10" viewBox="0 0 10 10" fill="none" xmlns="http://www.w3.org/2000/svg">
<path d="M8.66667 9H4C3.8 9 3.66667 8.85455 3.66667 8.63636V7.18182C3.66667 6.96364 3.8 6.81818 4 6.81818H8.66667C8.86667 6.81818 9 6.96364 9 7.18182V8.63636C9 8.85455 8.86667 9 8.66667 9ZM2.66667 9H1.33333C1.13333 9 1 8.85455 1 8.63636V7.18182C1 6.96364 1.13333 6.81818 1.33333 6.81818H2.66667C2.86667 6.81818 3 6.96364 3 7.18182V8.63636C3 8.85455 2.86667 9 2.66667 9ZM8.66667 6.09091H4C3.8 6.09091 3.66667 5.94545 3.66667 5.72727V4.27273C3.66667 4.05455 3.8 3.90909 4 3.90909H8.66667C8.86667 3.90909 9 4.05455 9 4.27273V5.72727C9 5.94545 8.86667 6.09091 8.66667 6.09091ZM2.66667 6.09091H1.33333C1.13333 6.09091 1 5.94545 1 5.72727V4.27273C1 4.05455 1.13333 3.90909 1.33333 3.90909H2.66667C2.86667 3.90909 3 4.05455 3 4.27273V5.72727C3 5.94545 2.86667 6.09091 2.66667 6.09091ZM8.66667 3.18182H4C3.8 3.18182 3.66667 3.03636 3.66667 2.81818V1.36364C3.66667 1.14545 3.8 1 4 1H8.66667C8.86667 1 9 1.14545 9 1.36364V2.81818C9 3.03636 8.86667 3.18182 8.66667 3.18182ZM2.66667 3.18182H1.33333C1.13333 3.18182 1 3.03636 1 2.81818V1.36364C1 1.14545 1.13333 1 1.33333 1H2.66667C2.86667 1 3 1.14545 3 1.36364V2.81818C3 3.03636 2.86667 3.18182 2.66667 3.18182Z" fill="#6B7280"/>
</svg>
