<svg width="33" height="25" viewBox="0 0 33 25" fill="none" xmlns="http://www.w3.org/2000/svg">
<path d="M25.0763 23.9907L18.2109 24.0376L18.162 16.887L20.4309 16.8715C21.0063 16.8675 21.3417 16.1912 20.9983 15.7083L16.5419 9.44377C16.2579 9.04132 15.676 9.0453 15.3976 9.45159L11.0272 15.7765C10.6905 16.264 11.0286 16.9357 11.6105 16.9317L13.8793 16.9162L13.9282 24.0669L6.23897 24.1194C2.80494 23.9474 0.0492449 20.657 0.0247416 17.0716C0.00783795 14.5982 1.29425 12.4326 3.21513 11.2535C3.03523 10.7627 2.9401 10.2377 2.93632 9.68503C2.91905 7.15771 4.88625 5.10209 7.33818 5.08534C7.86779 5.08172 8.37844 5.17259 8.85699 5.35129C10.2546 2.24141 13.3 0.0705947 16.8569 0.0462861C21.46 0.0215675 25.2771 3.62825 25.7403 8.25536C29.2819 8.85796 31.9923 12.2161 32.0184 16.0374C32.0463 20.1216 28.9844 23.6809 25.0763 23.9907Z" fill="#1E293B"/>
</svg>
