<svg width="16" height="14" viewBox="0 0 16 14" fill="none" xmlns="http://www.w3.org/2000/svg">
<path d="M9.65531 2.53446C10.3951 3.00297 10.9139 3.79578 11.0083 4.71605C11.3185 4.86345 11.6571 4.94002 11.9999 4.94032C13.296 4.94032 14.3465 3.87927 14.3465 2.57036C14.3465 1.26124 13.296 0.200195 11.9999 0.200195C10.7162 0.200599 9.67488 1.24269 9.65531 2.53446ZM8.11801 7.38732C9.4141 7.38732 10.4646 6.32607 10.4646 5.01716C10.4646 3.70825 9.4139 2.6472 8.11801 2.6472C6.82211 2.6472 5.77102 3.70845 5.77102 5.01736C5.77102 6.32628 6.82211 7.38732 8.11801 7.38732ZM9.11339 7.54887H7.12223C5.46552 7.54887 4.11771 8.91042 4.11771 10.5838V13.0433L4.1239 13.0818L4.29163 13.1348C5.87266 13.6338 7.24622 13.8002 8.37679 13.8002C10.585 13.8002 11.8649 13.1643 11.9438 13.1238L12.1005 13.0437H12.1173V10.5838C12.1179 8.91042 10.7701 7.54887 9.11339 7.54887ZM12.9957 5.10207H11.0199C10.9998 5.87264 10.679 6.60397 10.1273 7.13663C11.6 7.57892 12.6774 8.95822 12.6774 10.5874V11.3453C14.6282 11.2731 15.7524 10.7147 15.8265 10.6772L15.9832 10.5969H16V8.13657C16 6.46342 14.6522 5.10207 12.9957 5.10207ZM4.0005 4.94072C4.45955 4.94072 4.88666 4.80539 5.24847 4.57487C5.362 3.83318 5.75267 3.16366 6.3401 2.70407C6.34249 2.6597 6.34669 2.61574 6.34669 2.57096C6.34669 1.26185 5.29599 0.2008 4.0005 0.2008C2.70421 0.2008 1.65391 1.26185 1.65391 2.57096C1.65391 3.87947 2.70421 4.94072 4.0005 4.94072ZM6.10787 7.13663C5.55929 6.60651 5.23895 5.87986 5.21592 5.11336C5.14264 5.10792 5.07016 5.10207 4.99548 5.10207H3.00452C1.34781 5.10207 0 6.46342 0 8.13657V10.5965L0.00618994 10.6344L0.173917 10.6878C1.44226 11.0878 2.57422 11.2721 3.55742 11.3302V10.5874C3.55782 8.95822 4.63487 7.57932 6.10787 7.13663Z" fill="#16A34A"/>
</svg>
